<?xml version="1.0" ?><!DOCTYPE svg  PUBLIC '-//W3C//DTD SVG 1.0//EN'  'http://www.w3.org/TR/2001/REC-SVG-20010904/DTD/svg10.dtd'><svg height="32" style="overflow:visible;enable-background:new 0 0 32 32" viewBox="0 0 32 32" width="32" xml:space="preserve" xmlns="http://www.w3.org/2000/svg" xmlns:xlink="http://www.w3.org/1999/xlink"><g><g id="Linkedin_2_"><g id="Linkedin_1_"><circle cx="16" cy="16" id="BG" r="16" style="fill:#3078F0;"/><path d="M19.1,13c-0.9,0-1.7,0.4-2.3,1v-1h-2.8v8h2.8v-4.6        c0-0.8,0.6-1.4,1.4-1.4s1.4,0.6,1.4,1.4V21h2.5v-5C22.1,14.3,20.8,13,19.1,13z M10.1,21h2.5v-8h-2.5V21z M11.4,9        c-0.8,0-1.5,0.7-1.5,1.5s0.7,1.5,1.5,1.5s1.5-0.7,1.5-1.5S12.2,9,11.4,9z" id="Linkedin" style="fill:#F4F4F4;"/></g></g></g></svg>